<?xml version="1.0" standalone="no"?><!DOCTYPE svg PUBLIC "-//W3C//DTD SVG 1.1//EN" "http://www.w3.org/Graphics/SVG/1.1/DTD/svg11.dtd"><svg t="1545034230110" class="icon" style="" viewBox="0 0 1024 1024" version="1.1" xmlns="http://www.w3.org/2000/svg" p-id="1539" xmlns:xlink="http://www.w3.org/1999/xlink" width="200" height="200"><defs><style type="text/css"></style></defs><path d="M275.108 655.123c12.813 0 23.21-6.579 23.21-14.702 0-8.118-10.397-14.7-23.21-14.7h-71.112c-12.813 0-23.199 6.582-23.199 14.7 0 8.123 10.387 14.702 23.199 14.702h71.112zM708.841 796.085c12.813 0 23.198-6.578 23.198-14.7 0-8.118-10.387-14.701-23.198-14.701h-71.122c-12.813 0-23.201 6.583-23.201 14.701 0 8.122 10.389 14.7 23.201 14.7h71.122z" fill="#366DB5" p-id="1540"></path><path d="M558.01 588.446h21.978v225.845H558.01zM558.01 272.134h21.978v220.467H558.01zM297.921 532.213h225.858v21.977H297.921zM609.045 532.213h231.043v21.977H609.045zM521.193 510.935L369.547 359.289l15.527-15.539 151.658 151.651zM752.883 742.66L601.225 591l15.539-15.539 151.659 151.66zM385.086 742.657l-15.539-15.543L516 580.673l15.538 15.537zM616.815 510.924l-15.538-15.544 151.645-151.63 15.539 15.539z" fill="#152B3B" p-id="1541"></path><path d="M566.896 329.956c-119.776 0-216.866 97.091-216.866 216.867 0 119.77 97.09 216.859 216.866 216.859 119.766 0 216.854-97.091 216.854-216.859 0-119.776-97.09-216.867-216.854-216.867m0 390.586c-95.954 0-173.729-77.782-173.729-173.719 0-95.954 77.775-173.735 173.729-173.735 95.942 0 173.719 77.781 173.719 173.735-0.001 95.937-77.777 173.719-173.719 173.719" fill="#E84135" p-id="1542"></path><path d="M566.896 475.599c-39.338 0-71.23 31.881-71.23 71.226 0 39.327 31.893 71.22 71.23 71.22 39.328 0 71.22-31.893 71.22-71.22-0.001-39.346-31.892-71.226-71.22-71.226m0 99.397c-15.56 0-28.179-12.613-28.179-28.173 0-15.571 12.619-28.186 28.179-28.186s28.168 12.613 28.168 28.186c-0.001 15.56-12.61 28.173-28.168 28.173" fill="#E84135" p-id="1543"></path><path d="M593.014 529.38c2.661 4.631 4.292 9.927 4.292 15.651 0 17.501-14.187 31.677-31.677 31.677-5.73 0-11.03-1.637-15.646-4.281 5.451 9.522 15.604 16.016 27.364 16.016 17.512 0 31.676-14.181 31.676-31.678 0-11.767-6.48-21.923-16.009-27.385" fill="#060404" p-id="1544"></path><path d="M766.5 342.5m-22 0a22 22 0 1 0 44 0 22 22 0 1 0-44 0Z" fill="#152B3B" p-id="1545"></path><path d="M838.5 541.5m-22 0a22 22 0 1 0 44 0 22 22 0 1 0-44 0Z" fill="#152B3B" p-id="1546"></path><path d="M759.5 734.5m-22 0a22 22 0 1 0 44 0 22 22 0 1 0-44 0Z" fill="#152B3B" p-id="1547"></path><path d="M568.5 814.5m-22 0a22 22 0 1 0 44 0 22 22 0 1 0-44 0Z" fill="#152B3B" p-id="1548"></path><path d="M376.5 735.5m-22 0a22 22 0 1 0 44 0 22 22 0 1 0-44 0Z" fill="#152B3B" p-id="1549"></path><path d="M297.5 544.5m-22 0a22 22 0 1 0 44 0 22 22 0 1 0-44 0Z" fill="#152B3B" p-id="1550"></path><path d="M377.5 350.5m-22 0a22 22 0 1 0 44 0 22 22 0 1 0-44 0Z" fill="#152B3B" p-id="1551"></path><path d="M568.5 270.5m-22 0a22 22 0 1 0 44 0 22 22 0 1 0-44 0Z" fill="#152B3B" p-id="1552"></path><path d="M409.648 727.168h44.318c8.541 0 15.473 4.389 15.473 9.802 0 5.419-6.932 9.803-15.473 9.803h-2.062c-8.541 0-15.473 4.396-15.473 9.805s6.932 9.802 15.473 9.802h95.269c8.53 0 15.452 4.383 15.452 9.803 0 5.413-6.922 9.798-15.452 9.798H306.849c-8.531 0-15.463-4.385-15.463-9.798 0-5.42 6.933-9.803 15.463-9.803h26.439c8.553 0 15.475-4.394 15.475-9.802s-6.921-9.805-15.475-9.805H207.462c-8.531 0-15.453-4.384-15.453-9.803 0-5.413 6.921-9.802 15.453-9.802h202.186z" fill="#366DB5" p-id="1553"></path></svg>